# xmcd CD database file
#
# Track frame offsets:
#	150
#	20756
#	48721
#	72622
#	92316
#	106177
#	130579
#	165828
#	181446
#	191291
#	209884
#	230135
#	269504
#	281103
#
# Disc length: 4018 seconds
#
# Revision: 0
# Processed by: cddbd v1.5.2PL0 Copyright (c) Steve Scherf et al.
# Submitted via: CDex 1.70beta2
#
DISCID=d00fb00e
DTITLE=Lover´s Jazz - Beautiful Love Songs
DYEAR=2008
DGENRE=Jazz
TTITLE0=Just the way you are
TTITLE1=Dream dancing
TTITLE2=Adoro
TTITLE3=Dois pra la, Dois pra ca
TTITLE4=Days of wine and roses
TTITLE5=A Beautiful Friendship
TTITLE6=Amor, Amor, Amor
TTITLE7=Blue Moon
TTITLE8=Estoy perdiendo la cabeza por ti
TTITLE9=After all these years
TTITLE10=Falling in love whith you
TTITLE11=All the things you are
TTITLE12=Meu Doce Amor
TTITLE13=Englishman in the New York
EXTD=YEAR: 2008
EXTT0=
EXTT1=
EXTT2=
EXTT3=
EXTT4=
EXTT5=
EXTT6=
EXTT7=
EXTT8=
EXTT9=
EXTT10=
EXTT11=
EXTT12=
EXTT13=
PLAYORDER=
